<svg width="105" height="16" viewBox="0 0 105 16" fill="none" xmlns="http://www.w3.org/2000/svg">
<path d="M8.07715 11.2949L11.4434 13.9668L10.0107 15.2236L6.70605 12.5781L8.07715 11.2949ZM11.4697 6.25V6.95312C11.4697 7.91992 11.3438 8.78711 11.0918 9.55469C10.8398 10.3223 10.4795 10.9756 10.0107 11.5146C9.54199 12.0537 8.98242 12.4668 8.33203 12.7539C7.68164 13.0352 6.96094 13.1758 6.16992 13.1758C5.38477 13.1758 4.66699 13.0352 4.0166 12.7539C3.37207 12.4668 2.8125 12.0537 2.33789 11.5146C1.86328 10.9756 1.49414 10.3223 1.23047 9.55469C0.972656 8.78711 0.84375 7.91992 0.84375 6.95312V6.25C0.84375 5.2832 0.972656 4.41895 1.23047 3.65723C1.48828 2.88965 1.85156 2.23633 2.32031 1.69727C2.79492 1.15234 3.35449 0.739258 3.99902 0.458008C4.64941 0.170898 5.36719 0.0273438 6.15234 0.0273438C6.94336 0.0273438 7.66406 0.170898 8.31445 0.458008C8.9707 0.739258 9.5332 1.15234 10.002 1.69727C10.4707 2.23633 10.8311 2.88965 11.083 3.65723C11.3408 4.41895 11.4697 5.2832 11.4697 6.25ZM9.25488 6.95312V6.23242C9.25488 5.51758 9.18457 4.8877 9.04395 4.34277C8.90918 3.79199 8.70703 3.33203 8.4375 2.96289C8.17383 2.58789 7.84863 2.30664 7.46191 2.11914C7.08105 1.92578 6.64453 1.8291 6.15234 1.8291C5.67188 1.8291 5.24121 1.92578 4.86035 2.11914C4.47949 2.30664 4.1543 2.58789 3.88477 2.96289C3.61523 3.33203 3.41016 3.79199 3.26953 4.34277C3.12891 4.8877 3.05859 5.51758 3.05859 6.23242V6.95312C3.05859 7.66797 3.12891 8.30078 3.26953 8.85156C3.41016 9.40234 3.61523 9.86816 3.88477 10.249C4.16016 10.624 4.48828 10.9082 4.86914 11.1016C5.25586 11.2891 5.68945 11.3828 6.16992 11.3828C6.66211 11.3828 7.09863 11.2891 7.47949 11.1016C7.86035 10.9082 8.18262 10.624 8.44629 10.249C8.70996 9.86816 8.90918 9.40234 9.04395 8.85156C9.18457 8.30078 9.25488 7.66797 9.25488 6.95312ZM19.2217 10.7588V3.49023H21.3486V13H19.3447L19.2217 10.7588ZM19.5205 8.78125L20.2324 8.76367C20.2324 9.40234 20.1621 9.99121 20.0215 10.5303C19.8809 11.0635 19.6641 11.5293 19.3711 11.9277C19.0781 12.3203 18.7031 12.6279 18.2461 12.8506C17.7891 13.0674 17.2412 13.1758 16.6025 13.1758C16.1396 13.1758 15.7148 13.1084 15.3281 12.9736C14.9414 12.8389 14.6074 12.6309 14.3262 12.3496C14.0508 12.0684 13.8369 11.7021 13.6846 11.251C13.5322 10.7998 13.4561 10.2607 13.4561 9.63379V3.49023H15.5742V9.65137C15.5742 9.99707 15.6152 10.2871 15.6973 10.5215C15.7793 10.75 15.8906 10.9346 16.0312 11.0752C16.1719 11.2158 16.3359 11.3154 16.5234 11.374C16.7109 11.4326 16.9102 11.4619 17.1211 11.4619C17.7246 11.4619 18.1992 11.3447 18.5449 11.1104C18.8965 10.8701 19.1455 10.5479 19.292 10.1436C19.4443 9.73926 19.5205 9.28516 19.5205 8.78125ZM27.7119 13.1758C27.0088 13.1758 26.373 13.0615 25.8047 12.833C25.2422 12.5986 24.7617 12.2734 24.3633 11.8574C23.9707 11.4414 23.6689 10.9521 23.458 10.3896C23.2471 9.82715 23.1416 9.2207 23.1416 8.57031V8.21875C23.1416 7.47461 23.25 6.80078 23.4668 6.19727C23.6836 5.59375 23.9854 5.07812 24.3721 4.65039C24.7588 4.2168 25.2158 3.88574 25.7432 3.65723C26.2705 3.42871 26.8418 3.31445 27.457 3.31445C28.1367 3.31445 28.7314 3.42871 29.2412 3.65723C29.751 3.88574 30.1729 4.20801 30.5068 4.62402C30.8467 5.03418 31.0986 5.52344 31.2627 6.0918C31.4326 6.66016 31.5176 7.28711 31.5176 7.97266V8.87793H24.1699V7.35742H29.4258V7.19043C29.4141 6.80957 29.3379 6.45215 29.1973 6.11816C29.0625 5.78418 28.8545 5.51465 28.5732 5.30957C28.292 5.10449 27.917 5.00195 27.4482 5.00195C27.0967 5.00195 26.7832 5.07812 26.5078 5.23047C26.2383 5.37695 26.0127 5.59082 25.8311 5.87207C25.6494 6.15332 25.5088 6.49316 25.4092 6.8916C25.3154 7.28418 25.2686 7.72656 25.2686 8.21875V8.57031C25.2686 8.98633 25.3242 9.37305 25.4355 9.73047C25.5527 10.082 25.7227 10.3896 25.9453 10.6533C26.168 10.917 26.4375 11.125 26.7539 11.2773C27.0703 11.4238 27.4307 11.4971 27.835 11.4971C28.3447 11.4971 28.7988 11.3945 29.1973 11.1895C29.5957 10.9844 29.9414 10.6943 30.2344 10.3193L31.3506 11.4004C31.1455 11.6992 30.8789 11.9863 30.5508 12.2617C30.2227 12.5312 29.8213 12.751 29.3467 12.9209C28.8779 13.0908 28.333 13.1758 27.7119 13.1758ZM35.2881 5.42383V13H33.1699V3.49023H35.165L35.2881 5.42383ZM34.9453 7.89355L34.2246 7.88477C34.2246 7.22852 34.3066 6.62207 34.4707 6.06543C34.6348 5.50879 34.875 5.02539 35.1914 4.61523C35.5078 4.19922 35.9004 3.87988 36.3691 3.65723C36.8438 3.42871 37.3916 3.31445 38.0127 3.31445C38.4463 3.31445 38.8418 3.37891 39.1992 3.50781C39.5625 3.63086 39.876 3.82715 40.1396 4.09668C40.4092 4.36621 40.6143 4.71191 40.7549 5.13379C40.9014 5.55566 40.9746 6.06543 40.9746 6.66309V13H38.8564V6.84766C38.8564 6.38477 38.7861 6.02148 38.6455 5.75781C38.5107 5.49414 38.3145 5.30664 38.0566 5.19531C37.8047 5.07812 37.5029 5.01953 37.1514 5.01953C36.7529 5.01953 36.4131 5.0957 36.1318 5.24805C35.8564 5.40039 35.6309 5.6084 35.4551 5.87207C35.2793 6.13574 35.1504 6.44043 35.0684 6.78613C34.9863 7.13184 34.9453 7.50098 34.9453 7.89355ZM40.8428 7.33105L39.8496 7.55078C39.8496 6.97656 39.9287 6.43457 40.0869 5.9248C40.251 5.40918 40.4883 4.95801 40.7988 4.57129C41.1152 4.17871 41.5049 3.87109 41.9678 3.64844C42.4307 3.42578 42.9609 3.31445 43.5586 3.31445C44.0449 3.31445 44.4785 3.38184 44.8594 3.5166C45.2461 3.64551 45.5742 3.85059 45.8438 4.13184C46.1133 4.41309 46.3184 4.7793 46.459 5.23047C46.5996 5.67578 46.6699 6.21484 46.6699 6.84766V13H44.543V6.83887C44.543 6.3584 44.4727 5.98633 44.332 5.72266C44.1973 5.45898 44.0039 5.27734 43.752 5.17773C43.5 5.07227 43.1982 5.01953 42.8467 5.01953C42.5186 5.01953 42.2285 5.08105 41.9766 5.2041C41.7305 5.32129 41.5225 5.48828 41.3525 5.70508C41.1826 5.91602 41.0537 6.15918 40.9658 6.43457C40.8838 6.70996 40.8428 7.00879 40.8428 7.33105ZM58.667 10.4248C58.667 10.2139 58.6143 10.0234 58.5088 9.85352C58.4033 9.67773 58.2012 9.51953 57.9023 9.37891C57.6094 9.23828 57.1758 9.10938 56.6016 8.99219C56.0977 8.88086 55.6348 8.74902 55.2129 8.59668C54.7969 8.43848 54.4395 8.24805 54.1406 8.02539C53.8418 7.80273 53.6104 7.53906 53.4463 7.23438C53.2822 6.92969 53.2002 6.57812 53.2002 6.17969C53.2002 5.79297 53.2852 5.42676 53.4551 5.08105C53.625 4.73535 53.8682 4.43066 54.1846 4.16699C54.501 3.90332 54.8848 3.69531 55.3359 3.54297C55.793 3.39062 56.3027 3.31445 56.8652 3.31445C57.6621 3.31445 58.3447 3.44922 58.9131 3.71875C59.4873 3.98242 59.9268 4.34277 60.2314 4.7998C60.5361 5.25098 60.6885 5.76074 60.6885 6.3291H58.5703C58.5703 6.07715 58.5059 5.84277 58.377 5.62598C58.2539 5.40332 58.0664 5.22461 57.8145 5.08984C57.5625 4.94922 57.2461 4.87891 56.8652 4.87891C56.502 4.87891 56.2002 4.9375 55.96 5.05469C55.7256 5.16602 55.5498 5.3125 55.4326 5.49414C55.3213 5.67578 55.2656 5.875 55.2656 6.0918C55.2656 6.25 55.2949 6.39355 55.3535 6.52246C55.418 6.64551 55.5234 6.75977 55.6699 6.86523C55.8164 6.96484 56.0156 7.05859 56.2676 7.14648C56.5254 7.23438 56.8477 7.31934 57.2344 7.40137C57.9609 7.55371 58.585 7.75 59.1064 7.99023C59.6338 8.22461 60.0381 8.5293 60.3193 8.9043C60.6006 9.27344 60.7412 9.74219 60.7412 10.3105C60.7412 10.7324 60.6504 11.1191 60.4688 11.4707C60.293 11.8164 60.0352 12.1182 59.6953 12.376C59.3555 12.6279 58.9482 12.8242 58.4736 12.9648C58.0049 13.1055 57.4775 13.1758 56.8916 13.1758C56.0303 13.1758 55.3008 13.0234 54.7031 12.7188C54.1055 12.4082 53.6514 12.0127 53.3408 11.5322C53.0361 11.0459 52.8838 10.542 52.8838 10.0205H54.9316C54.9551 10.4131 55.0635 10.7266 55.2568 10.9609C55.4561 11.1895 55.7021 11.3564 55.9951 11.4619C56.2939 11.5615 56.6016 11.6113 56.918 11.6113C57.2988 11.6113 57.6182 11.5615 57.876 11.4619C58.1338 11.3564 58.3301 11.2158 58.4648 11.04C58.5996 10.8584 58.667 10.6533 58.667 10.4248ZM62.1914 8.35059V8.14844C62.1914 7.46289 62.291 6.82715 62.4902 6.24121C62.6895 5.64941 62.9766 5.13672 63.3516 4.70312C63.7324 4.26367 64.1953 3.92383 64.7402 3.68359C65.291 3.4375 65.9121 3.31445 66.6035 3.31445C67.3008 3.31445 67.9219 3.4375 68.4668 3.68359C69.0176 3.92383 69.4834 4.26367 69.8643 4.70312C70.2451 5.13672 70.5352 5.64941 70.7344 6.24121C70.9336 6.82715 71.0332 7.46289 71.0332 8.14844V8.35059C71.0332 9.03613 70.9336 9.67188 70.7344 10.2578C70.5352 10.8438 70.2451 11.3564 69.8643 11.7959C69.4834 12.2295 69.0205 12.5693 68.4756 12.8154C67.9307 13.0557 67.3125 13.1758 66.6211 13.1758C65.9238 13.1758 65.2998 13.0557 64.749 12.8154C64.2041 12.5693 63.7412 12.2295 63.3604 11.7959C62.9795 11.3564 62.6895 10.8438 62.4902 10.2578C62.291 9.67188 62.1914 9.03613 62.1914 8.35059ZM64.3096 8.14844V8.35059C64.3096 8.77832 64.3535 9.18262 64.4414 9.56348C64.5293 9.94434 64.667 10.2783 64.8545 10.5654C65.042 10.8525 65.2822 11.0781 65.5752 11.2422C65.8682 11.4062 66.2168 11.4883 66.6211 11.4883C67.0137 11.4883 67.3535 11.4062 67.6406 11.2422C67.9336 11.0781 68.1738 10.8525 68.3613 10.5654C68.5488 10.2783 68.6865 9.94434 68.7744 9.56348C68.8682 9.18262 68.915 8.77832 68.915 8.35059V8.14844C68.915 7.72656 68.8682 7.32812 68.7744 6.95312C68.6865 6.57227 68.5459 6.23535 68.3525 5.94238C68.165 5.64941 67.9248 5.4209 67.6318 5.25684C67.3447 5.08691 67.002 5.00195 66.6035 5.00195C66.2051 5.00195 65.8594 5.08691 65.5664 5.25684C65.2793 5.4209 65.042 5.64941 64.8545 5.94238C64.667 6.23535 64.5293 6.57227 64.4414 6.95312C64.3535 7.32812 64.3096 7.72656 64.3096 8.14844ZM78.5303 10.7588V3.49023H80.6572V13H78.6533L78.5303 10.7588ZM78.8291 8.78125L79.541 8.76367C79.541 9.40234 79.4707 9.99121 79.3301 10.5303C79.1895 11.0635 78.9727 11.5293 78.6797 11.9277C78.3867 12.3203 78.0117 12.6279 77.5547 12.8506C77.0977 13.0674 76.5498 13.1758 75.9111 13.1758C75.4482 13.1758 75.0234 13.1084 74.6367 12.9736C74.25 12.8389 73.916 12.6309 73.6348 12.3496C73.3594 12.0684 73.1455 11.7021 72.9932 11.251C72.8408 10.7998 72.7646 10.2607 72.7646 9.63379V3.49023H74.8828V9.65137C74.8828 9.99707 74.9238 10.2871 75.0059 10.5215C75.0879 10.75 75.1992 10.9346 75.3398 11.0752C75.4805 11.2158 75.6445 11.3154 75.832 11.374C76.0195 11.4326 76.2188 11.4619 76.4297 11.4619C77.0332 11.4619 77.5078 11.3447 77.8535 11.1104C78.2051 10.8701 78.4541 10.5479 78.6006 10.1436C78.7529 9.73926 78.8291 9.28516 78.8291 8.78125ZM91.5029 13.1758C90.7998 13.1758 90.1641 13.0615 89.5957 12.833C89.0332 12.5986 88.5527 12.2734 88.1543 11.8574C87.7617 11.4414 87.46 10.9521 87.249 10.3896C87.0381 9.82715 86.9326 9.2207 86.9326 8.57031V8.21875C86.9326 7.47461 87.041 6.80078 87.2578 6.19727C87.4746 5.59375 87.7764 5.07812 88.1631 4.65039C88.5498 4.2168 89.0068 3.88574 89.5342 3.65723C90.0615 3.42871 90.6328 3.31445 91.248 3.31445C91.9277 3.31445 92.5225 3.42871 93.0322 3.65723C93.542 3.88574 93.9639 4.20801 94.2979 4.62402C94.6377 5.03418 94.8896 5.52344 95.0537 6.0918C95.2236 6.66016 95.3086 7.28711 95.3086 7.97266V8.87793H87.9609V7.35742H93.2168V7.19043C93.2051 6.80957 93.1289 6.45215 92.9883 6.11816C92.8535 5.78418 92.6455 5.51465 92.3643 5.30957C92.083 5.10449 91.708 5.00195 91.2393 5.00195C90.8877 5.00195 90.5742 5.07812 90.2988 5.23047C90.0293 5.37695 89.8037 5.59082 89.6221 5.87207C89.4404 6.15332 89.2998 6.49316 89.2002 6.8916C89.1064 7.28418 89.0596 7.72656 89.0596 8.21875V8.57031C89.0596 8.98633 89.1152 9.37305 89.2266 9.73047C89.3438 10.082 89.5137 10.3896 89.7363 10.6533C89.959 10.917 90.2285 11.125 90.5449 11.2773C90.8613 11.4238 91.2217 11.4971 91.626 11.4971C92.1357 11.4971 92.5898 11.3945 92.9883 11.1895C93.3867 10.9844 93.7324 10.6943 94.0254 10.3193L95.1416 11.4004C94.9365 11.6992 94.6699 11.9863 94.3418 12.2617C94.0137 12.5312 93.6123 12.751 93.1377 12.9209C92.6689 13.0908 92.124 13.1758 91.5029 13.1758ZM102.683 10.7588V3.49023H104.81V13H102.806L102.683 10.7588ZM102.981 8.78125L103.693 8.76367C103.693 9.40234 103.623 9.99121 103.482 10.5303C103.342 11.0635 103.125 11.5293 102.832 11.9277C102.539 12.3203 102.164 12.6279 101.707 12.8506C101.25 13.0674 100.702 13.1758 100.063 13.1758C99.6006 13.1758 99.1758 13.1084 98.7891 12.9736C98.4023 12.8389 98.0684 12.6309 97.7871 12.3496C97.5117 12.0684 97.2979 11.7021 97.1455 11.251C96.9932 10.7998 96.917 10.2607 96.917 9.63379V3.49023H99.0352V9.65137C99.0352 9.99707 99.0762 10.2871 99.1582 10.5215C99.2402 10.75 99.3516 10.9346 99.4922 11.0752C99.6328 11.2158 99.7969 11.3154 99.9844 11.374C100.172 11.4326 100.371 11.4619 100.582 11.4619C101.186 11.4619 101.66 11.3447 102.006 11.1104C102.357 10.8701 102.606 10.5479 102.753 10.1436C102.905 9.73926 102.981 9.28516 102.981 8.78125Z" fill="url(#paint0_linear_24_93)"/>
<defs>
<linearGradient id="paint0_linear_24_93" x1="1.63491e-07" y1="7.24528" x2="106" y2="7.24529" gradientUnits="userSpaceOnUse">
<stop stop-color="#44D374"/>
<stop offset="1" stop-color="#32F484"/>
</linearGradient>
</defs>
</svg>
